<?xml version="1.0" encoding="UTF-8" standalone="no"?>
<!DOCTYPE svg PUBLIC "-//W3C//DTD SVG 1.1//EN"
 "http://www.w3.org/Graphics/SVG/1.1/DTD/svg11.dtd">
<!-- Generated by graphviz version 7.1.0 (20230121.1956)
 -->
<!-- Title: example Pages: 1 -->
<svg width="962pt" height="44pt"
 viewBox="0.00 0.00 962.00 44.00" xmlns="http://www.w3.org/2000/svg" xmlns:xlink="http://www.w3.org/1999/xlink">
<g id="graph0" class="graph" transform="scale(1 1) rotate(0) translate(4 40)">
<title>example</title>
<polygon fill="white" stroke="none" points="-4,4 -4,-40 958,-40 958,4 -4,4"/>
<!-- a -->
<g id="node1" class="node">
<title>a</title>
<ellipse fill="none" stroke="black" cx="27" cy="-18" rx="27" ry="18"/>
<text text-anchor="middle" x="27" y="-14.9" font-family="Times,serif" font-size="12.00">a</text>
</g>
<!-- b -->
<g id="node2" class="node">
<title>b</title>
<ellipse fill="none" stroke="black" cx="117" cy="-18" rx="27" ry="18"/>
<text text-anchor="middle" x="117" y="-14.9" font-family="Times,serif" font-size="12.00">b</text>
</g>
<!-- a&#45;&gt;b -->
<g id="edge1" class="edge">
<title>a&#45;&gt;b</title>
<path fill="none" stroke="black" d="M54.4,-18C61.89,-18 70.18,-18 78.2,-18"/>
<polygon fill="black" stroke="black" points="78.1,-21.5 88.1,-18 78.1,-14.5 78.1,-21.5"/>
</g>
<!-- c -->
<g id="node3" class="node">
<title>c</title>
<ellipse fill="none" stroke="black" cx="207" cy="-18" rx="27" ry="18"/>
<text text-anchor="middle" x="207" y="-14.9" font-family="Times,serif" font-size="12.00">c</text>
</g>
<!-- b&#45;&gt;c -->
<g id="edge2" class="edge">
<title>b&#45;&gt;c</title>
<path fill="none" stroke="black" d="M144.4,-18C151.89,-18 160.18,-18 168.2,-18"/>
<polygon fill="black" stroke="black" points="168.1,-21.5 178.1,-18 168.1,-14.5 168.1,-21.5"/>
</g>
<!-- d -->
<g id="node4" class="node">
<title>d</title>
<ellipse fill="none" stroke="black" cx="297" cy="-18" rx="27" ry="18"/>
<text text-anchor="middle" x="297" y="-14.9" font-family="Times,serif" font-size="12.00">d</text>
</g>
<!-- c&#45;&gt;d -->
<g id="edge3" class="edge">
<title>c&#45;&gt;d</title>
<path fill="none" stroke="black" d="M234.4,-18C241.89,-18 250.18,-18 258.2,-18"/>
<polygon fill="black" stroke="black" points="258.1,-21.5 268.1,-18 258.1,-14.5 258.1,-21.5"/>
</g>
<!-- e -->
<g id="node5" class="node">
<title>e</title>
<ellipse fill="none" stroke="black" cx="387" cy="-18" rx="27" ry="18"/>
<text text-anchor="middle" x="387" y="-14.9" font-family="Times,serif" font-size="12.00">e</text>
</g>
<!-- d&#45;&gt;e -->
<g id="edge4" class="edge">
<title>d&#45;&gt;e</title>
<path fill="none" stroke="black" d="M324.4,-18C331.89,-18 340.18,-18 348.2,-18"/>
<polygon fill="black" stroke="black" points="348.1,-21.5 358.1,-18 348.1,-14.5 348.1,-21.5"/>
</g>
<!-- f -->
<g id="node6" class="node">
<title>f</title>
<ellipse fill="none" stroke="black" cx="477" cy="-18" rx="27" ry="18"/>
<text text-anchor="middle" x="477" y="-14.9" font-family="Times,serif" font-size="12.00">f</text>
</g>
<!-- e&#45;&gt;f -->
<g id="edge5" class="edge">
<title>e&#45;&gt;f</title>
<path fill="none" stroke="black" d="M414.4,-18C421.89,-18 430.18,-18 438.2,-18"/>
<polygon fill="black" stroke="black" points="438.1,-21.5 448.1,-18 438.1,-14.5 438.1,-21.5"/>
</g>
<!-- g -->
<g id="node7" class="node">
<title>g</title>
<ellipse fill="none" stroke="black" cx="567" cy="-18" rx="27" ry="18"/>
<text text-anchor="middle" x="567" y="-14.9" font-family="Times,serif" font-size="12.00">g</text>
</g>
<!-- f&#45;&gt;g -->
<g id="edge6" class="edge">
<title>f&#45;&gt;g</title>
<path fill="none" stroke="black" d="M504.4,-18C511.89,-18 520.18,-18 528.2,-18"/>
<polygon fill="black" stroke="black" points="528.1,-21.5 538.1,-18 528.1,-14.5 528.1,-21.5"/>
</g>
<!-- h -->
<g id="node8" class="node">
<title>h</title>
<ellipse fill="none" stroke="black" cx="657" cy="-18" rx="27" ry="18"/>
<text text-anchor="middle" x="657" y="-14.9" font-family="Times,serif" font-size="12.00">h</text>
</g>
<!-- g&#45;&gt;h -->
<g id="edge7" class="edge">
<title>g&#45;&gt;h</title>
<path fill="none" stroke="black" d="M594.4,-18C601.89,-18 610.18,-18 618.2,-18"/>
<polygon fill="black" stroke="black" points="618.1,-21.5 628.1,-18 618.1,-14.5 618.1,-21.5"/>
</g>
<!-- i -->
<g id="node9" class="node">
<title>i</title>
<ellipse fill="none" stroke="black" cx="747" cy="-18" rx="27" ry="18"/>
<text text-anchor="middle" x="747" y="-14.9" font-family="Times,serif" font-size="12.00">i</text>
</g>
<!-- h&#45;&gt;i -->
<g id="edge8" class="edge">
<title>h&#45;&gt;i</title>
<path fill="none" stroke="black" d="M684.4,-18C691.89,-18 700.18,-18 708.2,-18"/>
<polygon fill="black" stroke="black" points="708.1,-21.5 718.1,-18 708.1,-14.5 708.1,-21.5"/>
</g>
<!-- j -->
<g id="node10" class="node">
<title>j</title>
<ellipse fill="none" stroke="black" cx="837" cy="-18" rx="27" ry="18"/>
<text text-anchor="middle" x="837" y="-14.9" font-family="Times,serif" font-size="12.00">j</text>
</g>
<!-- i&#45;&gt;j -->
<g id="edge9" class="edge">
<title>i&#45;&gt;j</title>
<path fill="none" stroke="black" d="M774.4,-18C781.89,-18 790.18,-18 798.2,-18"/>
<polygon fill="black" stroke="black" points="798.1,-21.5 808.1,-18 798.1,-14.5 798.1,-21.5"/>
</g>
<!-- k -->
<g id="node11" class="node">
<title>k</title>
<ellipse fill="none" stroke="black" cx="927" cy="-18" rx="27" ry="18"/>
<text text-anchor="middle" x="927" y="-14.9" font-family="Times,serif" font-size="12.00">k</text>
</g>
<!-- j&#45;&gt;k -->
<g id="edge10" class="edge">
<title>j&#45;&gt;k</title>
<path fill="none" stroke="black" d="M864.4,-18C871.89,-18 880.18,-18 888.2,-18"/>
<polygon fill="black" stroke="black" points="888.1,-21.5 898.1,-18 888.1,-14.5 888.1,-21.5"/>
</g>
</g>
</svg>
