<?xml version="1.0" encoding="UTF-8" standalone="no"?>
<!DOCTYPE svg PUBLIC "-//W3C//DTD SVG 1.1//EN"
 "http://www.w3.org/Graphics/SVG/1.1/DTD/svg11.dtd">
<!-- Generated by graphviz version 8.0.5 (20230430.1635)
 -->
<!-- Title: example Pages: 1 -->
<svg width="962pt" height="44pt"
 viewBox="0.00 0.00 962.00 44.00" xmlns="http://www.w3.org/2000/svg" xmlns:xlink="http://www.w3.org/1999/xlink">
<g id="graph0" class="graph" transform="scale(1 1) rotate(0) translate(4 40)">
<title>example</title>
<polygon fill="white" stroke="none" points="-4,4 -4,-40 958,-40 958,4 -4,4"/>
<!-- a -->
<g id="node1" class="node">
<title>a</title>
<ellipse fill="none" stroke="black" cx="27" cy="-18" rx="27" ry="18"/>
<text text-anchor="middle" x="27" y="-13.72" font-family="Times,serif" font-size="12.00">a</text>
</g>
<!-- b -->
<g id="node2" class="node">
<title>b</title>
<ellipse fill="none" stroke="black" cx="117" cy="-18" rx="27" ry="18"/>
<text text-anchor="middle" x="117" y="-13.72" font-family="Times,serif" font-size="12.00">b</text>
</g>
<!-- a&#45;&gt;b -->
<g id="edge1" class="edge">
<title>a&#45;&gt;b</title>
<path fill="none" stroke="black" d="M54.4,-18C62.06,-18 70.57,-18 78.76,-18"/>
<polygon fill="black" stroke="black" points="78.62,-21.5 88.62,-18 78.62,-14.5 78.62,-21.5"/>
</g>
<!-- c -->
<g id="node3" class="node">
<title>c</title>
<ellipse fill="none" stroke="black" cx="207" cy="-18" rx="27" ry="18"/>
<text text-anchor="middle" x="207" y="-13.72" font-family="Times,serif" font-size="12.00">c</text>
</g>
<!-- b&#45;&gt;c -->
<g id="edge2" class="edge">
<title>b&#45;&gt;c</title>
<path fill="none" stroke="black" d="M144.4,-18C152.06,-18 160.57,-18 168.76,-18"/>
<polygon fill="black" stroke="black" points="168.62,-21.5 178.62,-18 168.62,-14.5 168.62,-21.5"/>
</g>
<!-- d -->
<g id="node4" class="node">
<title>d</title>
<ellipse fill="none" stroke="black" cx="297" cy="-18" rx="27" ry="18"/>
<text text-anchor="middle" x="297" y="-13.72" font-family="Times,serif" font-size="12.00">d</text>
</g>
<!-- c&#45;&gt;d -->
<g id="edge3" class="edge">
<title>c&#45;&gt;d</title>
<path fill="none" stroke="black" d="M234.4,-18C242.06,-18 250.57,-18 258.76,-18"/>
<polygon fill="black" stroke="black" points="258.62,-21.5 268.62,-18 258.62,-14.5 258.62,-21.5"/>
</g>
<!-- e -->
<g id="node5" class="node">
<title>e</title>
<ellipse fill="none" stroke="black" cx="387" cy="-18" rx="27" ry="18"/>
<text text-anchor="middle" x="387" y="-13.72" font-family="Times,serif" font-size="12.00">e</text>
</g>
<!-- d&#45;&gt;e -->
<g id="edge4" class="edge">
<title>d&#45;&gt;e</title>
<path fill="none" stroke="black" d="M324.4,-18C332.06,-18 340.57,-18 348.76,-18"/>
<polygon fill="black" stroke="black" points="348.62,-21.5 358.62,-18 348.62,-14.5 348.62,-21.5"/>
</g>
<!-- f -->
<g id="node6" class="node">
<title>f</title>
<ellipse fill="none" stroke="black" cx="477" cy="-18" rx="27" ry="18"/>
<text text-anchor="middle" x="477" y="-13.72" font-family="Times,serif" font-size="12.00">f</text>
</g>
<!-- e&#45;&gt;f -->
<g id="edge5" class="edge">
<title>e&#45;&gt;f</title>
<path fill="none" stroke="black" d="M414.4,-18C422.06,-18 430.57,-18 438.76,-18"/>
<polygon fill="black" stroke="black" points="438.62,-21.5 448.62,-18 438.62,-14.5 438.62,-21.5"/>
</g>
<!-- g -->
<g id="node7" class="node">
<title>g</title>
<ellipse fill="none" stroke="black" cx="567" cy="-18" rx="27" ry="18"/>
<text text-anchor="middle" x="567" y="-13.72" font-family="Times,serif" font-size="12.00">g</text>
</g>
<!-- f&#45;&gt;g -->
<g id="edge6" class="edge">
<title>f&#45;&gt;g</title>
<path fill="none" stroke="black" d="M504.4,-18C512.06,-18 520.57,-18 528.76,-18"/>
<polygon fill="black" stroke="black" points="528.62,-21.5 538.62,-18 528.62,-14.5 528.62,-21.5"/>
</g>
<!-- h -->
<g id="node8" class="node">
<title>h</title>
<ellipse fill="none" stroke="black" cx="657" cy="-18" rx="27" ry="18"/>
<text text-anchor="middle" x="657" y="-13.72" font-family="Times,serif" font-size="12.00">h</text>
</g>
<!-- g&#45;&gt;h -->
<g id="edge7" class="edge">
<title>g&#45;&gt;h</title>
<path fill="none" stroke="black" d="M594.4,-18C602.06,-18 610.57,-18 618.76,-18"/>
<polygon fill="black" stroke="black" points="618.62,-21.5 628.62,-18 618.62,-14.5 618.62,-21.5"/>
</g>
<!-- i -->
<g id="node9" class="node">
<title>i</title>
<ellipse fill="none" stroke="black" cx="747" cy="-18" rx="27" ry="18"/>
<text text-anchor="middle" x="747" y="-13.72" font-family="Times,serif" font-size="12.00">i</text>
</g>
<!-- h&#45;&gt;i -->
<g id="edge8" class="edge">
<title>h&#45;&gt;i</title>
<path fill="none" stroke="black" d="M684.4,-18C692.06,-18 700.57,-18 708.76,-18"/>
<polygon fill="black" stroke="black" points="708.62,-21.5 718.62,-18 708.62,-14.5 708.62,-21.5"/>
</g>
<!-- j -->
<g id="node10" class="node">
<title>j</title>
<ellipse fill="none" stroke="black" cx="837" cy="-18" rx="27" ry="18"/>
<text text-anchor="middle" x="837" y="-13.72" font-family="Times,serif" font-size="12.00">j</text>
</g>
<!-- i&#45;&gt;j -->
<g id="edge9" class="edge">
<title>i&#45;&gt;j</title>
<path fill="none" stroke="black" d="M774.4,-18C782.06,-18 790.57,-18 798.76,-18"/>
<polygon fill="black" stroke="black" points="798.62,-21.5 808.62,-18 798.62,-14.5 798.62,-21.5"/>
</g>
<!-- k -->
<g id="node11" class="node">
<title>k</title>
<ellipse fill="none" stroke="black" cx="927" cy="-18" rx="27" ry="18"/>
<text text-anchor="middle" x="927" y="-13.72" font-family="Times,serif" font-size="12.00">k</text>
</g>
<!-- j&#45;&gt;k -->
<g id="edge10" class="edge">
<title>j&#45;&gt;k</title>
<path fill="none" stroke="black" d="M864.4,-18C872.06,-18 880.57,-18 888.76,-18"/>
<polygon fill="black" stroke="black" points="888.62,-21.5 898.62,-18 888.62,-14.5 888.62,-21.5"/>
</g>
</g>
</svg>
