<?xml version="1.0" encoding="UTF-8" standalone="no"?>
<!DOCTYPE svg PUBLIC "-//W3C//DTD SVG 1.1//EN"
 "http://www.w3.org/Graphics/SVG/1.1/DTD/svg11.dtd">
<!-- Generated by graphviz version 9.0.0 (20230911.1827)
 -->
<!-- Title: include/MyLibrary/subclass&#45;example.hpp Pages: 1 -->
<svg width="182pt" height="149pt"
 viewBox="0.00 0.00 181.62 149.00" xmlns="http://www.w3.org/2000/svg" xmlns:xlink="http://www.w3.org/1999/xlink">
<g id="graph0" class="graph" transform="scale(1 1) rotate(0) translate(4 145)">
<title>include/MyLibrary/subclass&#45;example.hpp</title>
<!-- Node1 -->
<g id="Node000001" class="node">
<title>Node1</title>
<g id="a_Node000001"><a xlink:title=" ">
<polygon fill="#999999" stroke="#666666" points="133.75,-141 0,-141 0,-110.5 133.75,-110.5 133.75,-141"/>
<text text-anchor="start" x="8" y="-127.5" font-family="Helvetica,sans-Serif" font-size="10.00">include/MyLibrary/subclass</text>
<text text-anchor="middle" x="66.88" y="-116.25" font-family="Helvetica,sans-Serif" font-size="10.00">&#45;example.hpp</text>
</a>
</g>
</g>
<!-- Node2 -->
<g id="Node000002" class="node">
<title>Node2</title>
<g id="a_Node000002"><a xlink:title=" ">
<polygon fill="#e0e0e0" stroke="#999999" points="54.88,-19.25 14.88,-19.25 14.88,0 54.88,0 54.88,-19.25"/>
<text text-anchor="middle" x="34.88" y="-5.75" font-family="Helvetica,sans-Serif" font-size="10.00">string</text>
</a>
</g>
</g>
<!-- Node1&#45;&gt;Node2 -->
<g id="edge1_Node000001_Node000002" class="edge">
<title>Node1&#45;&gt;Node2</title>
<g id="a_edge1_Node000001_Node000002"><a xlink:title=" ">
<path fill="none" stroke="#63b8ff" d="M48.79,-110.04C39.1,-100.96 28.1,-88.39 22.88,-74.5 17.46,-60.11 21.21,-42.94 25.91,-30.02"/>
<polygon fill="#63b8ff" stroke="#63b8ff" points="29.07,-31.54 29.66,-20.96 22.6,-28.86 29.07,-31.54"/>
</a>
</g>
</g>
<!-- Node3 -->
<g id="Node000003" class="node">
<title>Node3</title>
<g id="a_Node000003"><a xlink:href="example_8hpp.html" target="_top" xlink:title=" ">
<polygon fill="white" stroke="#666666" points="101.88,-74.5 31.88,-74.5 31.88,-55.25 101.88,-55.25 101.88,-74.5"/>
<text text-anchor="middle" x="66.88" y="-61" font-family="Helvetica,sans-Serif" font-size="10.00">example.hpp</text>
</a>
</g>
</g>
<!-- Node1&#45;&gt;Node3 -->
<g id="edge2_Node000001_Node000003" class="edge">
<title>Node1&#45;&gt;Node3</title>
<g id="a_edge2_Node000001_Node000003"><a xlink:title=" ">
<path fill="none" stroke="#63b8ff" d="M66.88,-110.2C66.88,-102.96 66.88,-94.09 66.88,-86.19"/>
<polygon fill="#63b8ff" stroke="#63b8ff" points="70.38,-86.46 66.88,-76.46 63.38,-86.46 70.38,-86.46"/>
</a>
</g>
</g>
<!-- Node4 -->
<g id="Node000004" class="node">
<title>Node4</title>
<g id="a_Node000004"><a xlink:title=" ">
<polygon fill="#e0e0e0" stroke="#999999" points="173.62,-74.5 120.12,-74.5 120.12,-55.25 173.62,-55.25 173.62,-74.5"/>
<text text-anchor="middle" x="146.88" y="-61" font-family="Helvetica,sans-Serif" font-size="10.00">iostream</text>
</a>
</g>
</g>
<!-- Node1&#45;&gt;Node4 -->
<g id="edge4_Node000001_Node000004" class="edge">
<title>Node1&#45;&gt;Node4</title>
<g id="a_edge4_Node000001_Node000004"><a xlink:title=" ">
<path fill="none" stroke="#63b8ff" d="M86.65,-110.2C98.48,-101.49 113.51,-90.43 125.6,-81.53"/>
<polygon fill="#63b8ff" stroke="#63b8ff" points="127.34,-84.59 133.32,-75.85 123.19,-78.96 127.34,-84.59"/>
</a>
</g>
</g>
<!-- Node3&#45;&gt;Node2 -->
<g id="edge3_Node000003_Node000002" class="edge">
<title>Node3&#45;&gt;Node2</title>
<g id="a_edge3_Node000003_Node000002"><a xlink:title=" ">
<path fill="none" stroke="#63b8ff" d="M61.59,-55.08C57.4,-48.11 51.4,-38.12 46.14,-29.37"/>
<polygon fill="#63b8ff" stroke="#63b8ff" points="49.2,-27.68 41.05,-20.91 43.2,-31.28 49.2,-27.68"/>
</a>
</g>
</g>
</g>
</svg>
