<?xml version="1.0" encoding="UTF-8" standalone="no"?>
<!DOCTYPE svg PUBLIC "-//W3C//DTD SVG 1.1//EN"
 "http://www.w3.org/Graphics/SVG/1.1/DTD/svg11.dtd">
<!-- Generated by graphviz version 3.0.0 (20220413.0242)
 -->
<!-- Title: include/MyLibrary/subclass&#45;example.hpp Pages: 1 -->
<svg width="183pt" height="151pt"
 viewBox="0.00 0.00 183.00 151.00" xmlns="http://www.w3.org/2000/svg" xmlns:xlink="http://www.w3.org/1999/xlink">
<g id="graph0" class="graph" transform="scale(1 1) rotate(0) translate(4 147)">
<title>include/MyLibrary/subclass&#45;example.hpp</title>
<!-- Node1 -->
<g id="node1" class="node">
<title>Node1</title>
<g id="a_node1"><a xlink:title=" ">
<polygon fill="#bfbfbf" stroke="black" points="0,-112.5 0,-142.5 134,-142.5 134,-112.5 0,-112.5"/>
<text text-anchor="start" x="8" y="-130.5" font-family="Helvetica,sans-Serif" font-size="10.00">include/MyLibrary/subclass</text>
<text text-anchor="middle" x="67" y="-119.5" font-family="Helvetica,sans-Serif" font-size="10.00">&#45;example.hpp</text>
</a>
</g>
</g>
<!-- Node2 -->
<g id="node2" class="node">
<title>Node2</title>
<g id="a_node2"><a xlink:title=" ">
<polygon fill="none" stroke="#bfbfbf" points="14.5,-0.5 14.5,-19.5 55.5,-19.5 55.5,-0.5 14.5,-0.5"/>
<text text-anchor="middle" x="35" y="-7.5" font-family="Helvetica,sans-Serif" font-size="10.00">string</text>
</a>
</g>
</g>
<!-- Node1&#45;&gt;Node2 -->
<g id="edge1" class="edge">
<title>Node1&#45;&gt;Node2</title>
<path fill="none" stroke="midnightblue" d="M48.98,-112.21C38.95,-103.07 27.43,-90.27 22,-76 16.18,-60.73 20.82,-42.39 26.11,-29.1"/>
<polygon fill="midnightblue" stroke="midnightblue" points="29.43,-30.23 30.29,-19.67 23.04,-27.38 29.43,-30.23"/>
</g>
<!-- Node3 -->
<g id="node3" class="node">
<title>Node3</title>
<g id="a_node3"><a xlink:href="example_8hpp.html" target="_top" xlink:title=" ">
<polygon fill="none" stroke="black" points="31.5,-56.5 31.5,-75.5 102.5,-75.5 102.5,-56.5 31.5,-56.5"/>
<text text-anchor="middle" x="67" y="-63.5" font-family="Helvetica,sans-Serif" font-size="10.00">example.hpp</text>
</a>
</g>
</g>
<!-- Node1&#45;&gt;Node3 -->
<g id="edge2" class="edge">
<title>Node1&#45;&gt;Node3</title>
<path fill="none" stroke="midnightblue" d="M67,-112.4C67,-104.47 67,-94.46 67,-85.86"/>
<polygon fill="midnightblue" stroke="midnightblue" points="70.5,-85.66 67,-75.66 63.5,-85.66 70.5,-85.66"/>
</g>
<!-- Node4 -->
<g id="node4" class="node">
<title>Node4</title>
<g id="a_node4"><a xlink:title=" ">
<polygon fill="none" stroke="#bfbfbf" points="121,-56.5 121,-75.5 175,-75.5 175,-56.5 121,-56.5"/>
<text text-anchor="middle" x="148" y="-63.5" font-family="Helvetica,sans-Serif" font-size="10.00">iostream</text>
</a>
</g>
</g>
<!-- Node1&#45;&gt;Node4 -->
<g id="edge4" class="edge">
<title>Node1&#45;&gt;Node4</title>
<path fill="none" stroke="midnightblue" d="M86.2,-112.4C98.82,-103.13 115.29,-91.03 128.06,-81.65"/>
<polygon fill="midnightblue" stroke="midnightblue" points="130.23,-84.4 136.21,-75.66 126.08,-78.76 130.23,-84.4"/>
</g>
<!-- Node3&#45;&gt;Node2 -->
<g id="edge3" class="edge">
<title>Node3&#45;&gt;Node2</title>
<path fill="none" stroke="midnightblue" d="M61.72,-56.08C57.29,-48.61 50.84,-37.72 45.38,-28.52"/>
<polygon fill="midnightblue" stroke="midnightblue" points="48.29,-26.57 40.19,-19.75 42.27,-30.14 48.29,-26.57"/>
</g>
</g>
</svg>
